# xmcd
#
# Track frame offsets: 
#        150
#        21540
#        41647
#        63038
#
# Disc length: 1105 seconds
#
# Revision: 2
# Processed by: cddbd v1.5.2PL0 Copyright (c) Steve Scherf et al.
# Submitted via: ExactAudioCopy v1.0b3
#
DISCID=2e044f04
DTITLE=TrySail - High Free Spirits
DYEAR=2016
DGENRE=Anime
TTITLE0=High Free Spirits
TTITLE1=僕らのシンフォニー
TTITLE2=High Free Spirits [Instrumental]
TTITLE3=僕らのシンフォニー [Instrumental]
EXTD=YEAR: 2000
EXTT0=
EXTT1=
EXTT2=
EXTT3=
PLAYORDER=
